<svg xmlns="http://www.w3.org/2000/svg" viewBox="0 0 1012.03 482.4"><defs><style>.cls-1{fill:#fff;stroke:#fff;stroke-miterlimit:10;}</style></defs><g id="Layer_2" data-name="Layer 2"><g id="Layer_1-2" data-name="Layer 1"><polygon class="cls-1" points="0.77 97.3 166.87 481.9 447.67 481.4 422.47 425.4 218.57 424.1 77.47 98.8 0.77 97.3"/><polygon class="cls-1" points="134.97 99.5 277.77 98.8 300.77 154.3 226.57 156 247.97 206.4 324.47 206.4 349.77 263.5 270.67 265.7 292.77 315.5 373.17 314.9 397.77 373.7 256.07 373.4 134.97 99.5"/><path class="cls-1" d="M243.77.5V61.4h66.1l189.2,420.1,28-.6L715.77,61.4h62l-.5-59.5H558.17l1.1,58,77.5,1.2s-126,320.6-123.5,312.6S391.77,61.3,391.77,61.3l75.4.9L466.77.5Z"/><polygon class="cls-1" points="880.07 111.6 737.27 111 714.27 166.4 788.47 168.1 766.97 218.5 690.57 218.5 665.27 275.6 744.37 277.8 722.27 327.6 641.87 327 617.27 385.8 758.97 385.5 880.07 111.6"/><polygon class="cls-1" points="1011.27 97.3 845.17 481.9 564.37 481.4 589.57 425.4 793.47 424.1 934.57 98.8 1011.27 97.3"/></g></g></svg>