<?xml version="1.0" standalone="no"?>
<!DOCTYPE svg PUBLIC "-//W3C//DTD SVG 20010904//EN"
 "http://www.w3.org/TR/2001/REC-SVG-20010904/DTD/svg10.dtd">
<svg version="1.0" xmlns="http://www.w3.org/2000/svg"
 width="1047.000000pt" height="536.000000pt" viewBox="0 0 1047.000000 536.000000"
 preserveAspectRatio="xMidYMid meet">
<metadata>
Created by potrace 1.16, written by Peter Selinger 2001-2019
</metadata>
<g transform="translate(0.000000,536.000000) scale(0.100000,-0.100000)"
fill="#000000" stroke="none">
<path d="M2769 5152 l-176 -2 -6 -83 c-4 -45 -7 -180 -7 -299 l0 -218 310 0
311 0 17 -37 c10 -21 25 -49 34 -63 15 -22 136 -289 410 -905 44 -99 90 -203
103 -231 13 -28 301 -672 640 -1430 340 -759 633 -1414 653 -1457 l35 -78 140
3 140 3 224 500 c123 275 314 703 425 950 110 248 231 518 268 600 125 278
360 804 508 1135 55 124 169 378 252 565 84 187 158 347 166 355 7 9 20 32 29
53 l15 37 310 0 310 0 -2 298 -3 297 -205 6 c-113 4 -605 7 -1093 8 -765 1
-888 -1 -893 -14 -3 -8 -2 -141 3 -297 l8 -283 373 -3 c302 -2 372 -5 372 -16
0 -15 -140 -344 -170 -399 -28 -50 -87 -188 -111 -257 -39 -113 -934 -2188
-941 -2184 -4 3 -8 17 -8 33 0 22 -373 902 -819 1934 -44 103 -81 194 -81 200
0 16 -95 237 -120 280 -22 36 -170 384 -170 398 0 5 162 9 374 9 332 0 375 2
380 16 3 9 6 143 6 300 l0 284 -917 -2 c-505 -2 -997 -4 -1094 -6z"/>
<path d="M110 4191 c0 -6 205 -489 456 -1073 251 -585 564 -1315 696 -1623
132 -308 244 -571 248 -585 4 -14 64 -147 134 -295 l127 -270 1404 3 1404 2
-31 68 c-16 37 -67 150 -113 252 -45 102 -88 197 -95 213 l-13 27 -1012 0
c-794 0 -1014 3 -1027 13 -8 6 -85 176 -171 377 -570 1337 -1230 2867 -1240
2876 -16 16 -767 30 -767 15z"/>
<path d="M9823 4193 c-228 -3 -233 -4 -247 -26 -8 -12 -323 -744 -701 -1627
-378 -883 -692 -1611 -698 -1617 -7 -10 -225 -13 -1026 -13 l-1017 0 -123
-276 c-67 -151 -121 -277 -119 -280 3 -2 634 -4 1403 -4 l1398 0 127 272 c70
150 129 282 132 293 3 11 319 751 702 1643 383 893 696 1628 696 1633 0 5 -63
8 -147 7 -82 -2 -253 -4 -380 -5z"/>
<path d="M1452 4169 c3 -8 49 -114 102 -235 53 -122 96 -227 96 -233 0 -12
165 -399 625 -1466 131 -302 243 -564 251 -581 7 -17 22 -34 33 -37 13 -3 34
-36 62 -96 l42 -91 206 0 c569 0 1211 14 1211 25 0 7 -12 39 -27 71 -15 33
-70 156 -123 274 l-96 215 -341 5 c-188 3 -344 7 -347 10 -14 14 -205 474
-200 481 3 5 151 9 330 9 184 0 324 4 324 9 0 7 -179 411 -240 544 l-13 27
-397 0 -397 0 -107 245 c-58 135 -106 250 -106 255 0 6 146 10 385 10 280 0
385 3 385 11 0 13 -218 507 -232 525 -5 7 -162 13 -490 17 -266 4 -586 10
-712 14 -196 5 -229 4 -224 -8z"/>
<path d="M8610 4173 c-58 -2 -312 -7 -565 -11 l-459 -7 -117 -260 c-65 -143
-118 -266 -118 -272 -1 -10 82 -13 384 -13 239 0 385 -4 385 -10 0 -5 -47
-118 -104 -252 l-104 -243 -399 -3 -399 -2 -99 -223 c-54 -122 -111 -249 -127
-281 -15 -33 -28 -63 -28 -68 0 -4 146 -8 324 -8 192 0 327 -4 331 -9 5 -9
-170 -432 -195 -471 -8 -13 -62 -16 -350 -20 l-341 -5 -126 -282 c-70 -156
-125 -285 -122 -287 2 -2 321 -7 709 -11 l705 -8 44 92 c28 60 52 96 65 101
14 5 32 34 52 81 17 41 152 353 299 694 479 1114 555 1292 555 1303 0 7 45
115 99 242 54 126 96 231 93 234 -5 6 -181 5 -392 -1z"/>
</g>
</svg>
